<svg xmlns="http://www.w3.org/2000/svg" xml:space="preserve" width="2000" height="84" data-id="lg_wMj0prVmUtytBM7heV" data-version="1" viewBox="0 0 2000 84"><g data-padding="20"><g transform="translate(10 1.615)scale(.96154)"><rect width="427.881" height="67.8" x="309.987" y="-372.248" fill="none" rx="0" ry="0" transform="translate(551.88 381.43)"/><path fill="#2563eb" d="M871.437 45.902q-.38 3.05-.38 4.85t.44 3.32q.44 1.53 1.26 2.64 1.76 2.37 4.46 2.37 5.15 0 5.15-5.68 0-4.57-5.3-9.7l-3.05-2.96q-4.01-3.86-5.48-6.21-2.9-4.63-2.9-9.2 0-3.72 2.41-6.24 2.9-3.07 8.35-3.07 2.13 0 3.22.2 2.02.38 2.69.38 1.7 0 2.64-1.05.35-.38.76-1 2.14 1.2 2.14 8.82 0 4.86-.97 7.18-.32.79-.73 1-.47-4.43-2.87-7.91-2.81-4.11-6.5-4.11-3.17 0-3.9 2.9-.21.82-.21 2.04t.74 2.77q.73 1.55 1.92 3.09 1.18 1.54 2.73 3.09 4.69 4.8 6.23 6.5t2.74 3.52q2.64 4.07 2.64 7.88 0 4.6-3.58 7.62-3.69 3.07-9.49 3.07-4.8 0-8.26-2.4-3.81-2.64-3.81-6.97 1.14-4.07 4.98-5.98 1.03-.52 1.93-.76m49.22 15.53h-8.64q1.35-4.63 1.35-15.91 0-4.72-.5-6.28-.5-1.57-1.25-2.29-.74-.72-1.99-.72-1.24 0-2.25.47t-1.81 1.23q-1.49 1.41-2.43 3.75v5.6q0 8.23.33 10.19.38 2.58.79 3.96h-8.65q.71-2.46.94-6.54.53-10.19.53-15.01t-.03-6.59-.09-3.53q-.15-6.39-.57-8.01-.42-1.63-.79-2.38-.37-.74-.81-1.36l-.99-1.38h10.69q-.82 2.96-.95 5.51t-.19 4.15q-.06 1.59-.12 3.35-.09 4.1-.09 7.24 2.32-3.9 6.13-5.16 1.34-.47 3.01-.47t3.04.72q1.36.72 2.27 2.04 1.87 2.66 1.87 7.29v3.14q0 8.96.25 11.23t.34 3q.2 1.29.61 2.76m20.39-27.25q-2.63 0-3.79 2.64t-1.16 8.88q0 13.38 4.95 13.38 2.64 0 3.8-3.57 1.15-3.57 1.15-9.81t-1.15-8.88q-1.16-2.64-3.8-2.64m-12.33 10.4q0-13.33 12.33-13.33 12.34 0 12.34 13.33 0 8.09-3.4 12.81-3.31 4.62-8.94 4.62-5.62 0-8.93-4.62-3.4-4.72-3.4-12.81m38.14-10.86q3.29-2.46 8.21-2.46 6.97 0 9.11 5.77.7 1.91.7 4.79 0 2.89-.66 5.63t-1.83 4.94q-1.17 2.19-2.77 3.86-1.59 1.67-3.47 2.79-3.75 2.25-7.97 2.37.06 1.58.18 3.1l.29 3.11q.26 3.16 1.82 5.36l.99 1.35h-10.69q.82-2.81.95-5.63.13-2.81.21-4.82.07-2 .1-4.14.12-4.98.12-8.73 0-12.07-.76-14.77-.47-1.67-1.21-2.66l-1.23-1.73h7.88q-.17.58.03 1.87m10.7 8.88q0-8.41-4.25-8.41-2.11 0-3.52 1.88-1.52 2.02-1.52 5.53l-.21 13.89v1.61q0 .79.03 1.61 4.25-.64 6.89-5.09 2.58-4.4 2.58-11.02m20.18-8.88q3.28-2.46 8.21-2.46 6.97 0 9.11 5.77.7 1.91.7 4.79 0 2.89-.66 5.63t-1.83 4.94q-1.17 2.19-2.77 3.86t-3.47 2.79q-3.75 2.25-7.97 2.37.06 1.58.18 3.1l.29 3.11q.26 3.16 1.82 5.36l.99 1.35h-10.69q.82-2.81.95-5.63.13-2.81.21-4.82.07-2 .1-4.14.12-4.98.12-8.73 0-12.07-.77-14.77-.46-1.67-1.2-2.66l-1.23-1.73h7.88q-.17.58.03 1.87m10.7 8.88q0-8.41-4.25-8.41-2.11 0-3.52 1.88-1.52 2.02-1.52 5.53l-.21 13.89v1.61q0 .79.03 1.61 4.25-.64 6.89-5.09 2.58-4.4 2.58-11.02m23.05-18.64q-.6.96-1.45 1.62t-1.94.66q-1.08 0-1.93-.66t-1.43-1.62q-1.21-1.99-1.21-4.22 0-2.7 2.46-3.6.88-.33 2.14-.33 3.49 0 4.34 2.46.26.71.26 1.57 0 .87-.32 2.01t-.92 2.11m.69 37.47h-8.65q1.35-4.63 1.35-15.91 0-7.94-1.4-10.93-.36-.76-.8-1.4l-.96-1.35h10.4q-1.29 4.83-1.29 14.9 0 10.06 1.35 14.69m16.16 0h-8.41q1.35-4.63 1.35-15.91 0-8.03-1.41-10.96-.35-.73-.79-1.37l-.97-1.35h10.17q-.44 1.46-.59 2.75l-.23 2.11q3.54-5.45 9.02-5.45 3.55 0 5.54 2.76 1.93 2.69 1.93 7.29v3.14q0 8.05.15 9.84t.23 2.72q.09.94.21 1.67.2 1.38.61 2.76h-8.58q1.35-4.63 1.35-15.91 0-4.51-.57-6.18t-1.37-2.39q-.79-.72-2.08-.72-2.37 0-4.3 1.88-1.67 1.61-2.55 4.1-.06.79-.06 1.64v1.67q0 11.28 1.35 15.91m39.23-.7q-2.84 1.29-5.6 1.29-2.75 0-4.57-.7t-3.1-2.05q-2.7-2.81-2.7-7.76 0-9.55 5.48-14.89 4.89-4.77 11.78-4.77h6.68q-.82 2.84-.94 5.45-.12 2.6-.16 4.26-.05 1.66-.08 3.35-.05 3.4-.05 6.95 0 3.54-.56 6.87-.56 3.32-1.48 5.81t-2.11 4.25-2.48 2.96q-2.11 1.96-4.89 2.87-.58-.23-1.13-.85-.54-.61-.66-1.2 3.34-1.35 5.31-6.71.76-2.08 1.26-5.13m.64-9.08.09-8.79q0-5.3-.38-8.02-4.16.82-6.56 4.92-2.44 4.19-2.44 10.57 0 3.96.6 5.6.61 1.64 1.44 2.4.84.76 2.02.76 1.19 0 2.1-.46.9-.47 1.61-1.41 1.52-2.02 1.52-5.57M856.352.207h-14.558l-6.705 17.83h-58.186l-.754-1.799a3.526 3.526 0 0 0-6.496 2.715l15.614 37.375h42.92l18.502-49.08h9.674a3.526 3.526 0 1 0 0-7.04m-71.525 36.806-.661-1.59h.66Zm0-3.712h-1.543l-2.32-5.51h3.863Zm0-7.62h-4.745l-2.308-5.534h7.053Zm8.2 23.593h-3.073l-2.598-6.217h5.684Zm0-8.34h-6.09v-5.51h6.09Zm0-7.62h-6.09v-5.523h6.09Zm0-7.634h-6.09v-5.545h6.09Zm8.225 23.594h-6.101v-6.217h6.1Zm0-8.34h-6.101v-5.51h6.1Zm0-7.62h-6.101v-5.523h6.1Zm0-7.634h-6.101v-5.545h6.1Zm8.213 23.594h-6.113v-6.217h6.102Zm0-8.34h-6.113v-5.51h6.102Zm0-7.62h-6.113v-5.523h6.102Zm0-7.634h-6.113v-5.545h6.102Zm8.213 23.594h-6.102v-6.217h6.102Zm0-8.34h-6.102v-5.51h6.102Zm0-7.62h-6.102v-5.523h6.102Zm0-7.634h-6.102v-5.545h6.102Zm5.626 23.594H819.8v-6.217h5.858Zm2.587-8.34h-6.113v-5.51h6.1Zm0-7.62h-6.113v-5.523h6.1Zm0-7.634h-6.113v-5.545h6.1Zm2.11 11.136v-1.392h.523Zm1.31-3.503h-1.31v-5.522h3.4Zm2.89-7.633h-4.2v-5.545h6.265ZM789.328 63.15a10.324 10.324 0 1 0 .01 20.648 10.324 10.324 0 0 0-.011-20.648m33.316 0a10.324 10.324 0 1 0 0 20.648 10.324 10.324 0 0 0 0-20.648"/></g><path fill="transparent" stroke="transparent" d="M740 0h520v84H740z"/></g></svg>