<?xml version="1.0" standalone="no"?>
<!DOCTYPE svg PUBLIC "-//W3C//DTD SVG 20010904//EN"
 "http://www.w3.org/TR/2001/REC-SVG-20010904/DTD/svg10.dtd">
<svg version="1.0" xmlns="http://www.w3.org/2000/svg"
 width="836.000000pt" height="258.000000pt" viewBox="0 0 836.000000 258.000000"
 preserveAspectRatio="xMidYMid meet">

<g transform="translate(0.000000,258.000000) scale(0.100000,-0.100000)"
fill="#000000" stroke="none">
<path d="M1951 2063 c-41 -109 -78 -204 -84 -210 -7 -10 -156 -13 -683 -13
l-674 0 -17 34 c-27 57 -93 74 -131 33 -37 -39 -36 -42 103 -377 12 -30 45
-109 72 -175 28 -66 76 -184 108 -263 l59 -142 500 2 500 3 196 521 c107 287
203 545 213 573 l18 51 120 0 c157 0 189 15 189 89 0 16 -10 37 -23 49 -22 21
-32 22 -208 22 l-185 0 -73 -197z m-1253 -330 l-3 -68 -58 0 -59 0 -24 59
c-13 33 -24 63 -24 68 0 4 38 8 85 8 l86 0 -3 -67z m190 0 l-3 -68 -72 -3 -73
-3 0 71 0 70 75 0 76 0 -3 -67z m190 0 l-3 -68 -70 0 -70 0 -3 68 -3 67 76 0
76 0 -3 -67z m192 -3 l0 -71 -72 3 -73 3 -3 68 -3 67 76 0 75 0 0 -70z m190 0
l0 -71 -72 3 -73 3 -3 68 -3 67 76 0 75 0 0 -70z m191 66 c2 -2 2 -34 1 -70
l-4 -66 -69 0 -69 0 0 70 0 70 68 0 c38 0 71 -2 73 -4z m199 2 c0 -2 -11 -32
-24 -68 l-24 -65 -51 -3 -51 -3 0 70 0 71 75 0 c41 0 75 -1 75 -2z m-1155
-248 c0 -57 -2 -65 -20 -68 -19 -3 -26 8 -72 126 -4 10 6 12 43 10 l49 -3 0
-65z m193 3 l-3 -68 -72 -3 -73 -3 0 71 0 70 75 0 76 0 -3 -67z m190 0 l-3
-68 -70 0 -70 0 -3 68 -3 67 76 0 76 0 -3 -67z m192 -3 l0 -71 -72 3 -73 3 -3
68 -3 67 76 0 75 0 0 -70z m190 0 l0 -71 -72 3 -73 3 -3 54 c-5 79 -3 81 78
81 l70 0 0 -70z m192 4 c1 -36 1 -68 -1 -70 -2 -2 -35 -4 -73 -4 l-68 0 0 70
0 70 69 0 69 0 4 -66z m128 58 c0 -27 -49 -127 -63 -130 -15 -3 -17 6 -17 67
l0 71 40 0 c22 0 40 -4 40 -8z m-1080 -187 c0 -8 -4 -15 -10 -15 -5 0 -10 7
-10 15 0 8 5 15 10 15 6 0 10 -7 10 -15z m188 -52 l-3 -68 -72 -3 -73 -3 0 71
0 70 75 0 76 0 -3 -67z m190 0 l-3 -68 -70 0 -70 0 -3 68 -3 67 76 0 76 0 -3
-67z m192 -3 l0 -71 -72 3 -73 3 -3 68 -3 67 76 0 75 0 0 -70z m190 0 l0 -71
-72 3 -73 3 -3 68 -3 67 76 0 75 0 0 -70z m191 66 c2 -2 2 -34 1 -70 l-4 -66
-68 0 c-38 0 -70 3 -72 8 -2 4 -2 35 0 70 l4 62 67 0 c37 0 70 -2 72 -4z m56
-18 c-3 -8 -6 -5 -6 6 -1 11 2 17 5 13 3 -3 4 -12 1 -19z m-817 -234 l0 -75
-42 3 c-41 3 -42 3 -70 72 -15 38 -28 71 -28 73 0 1 32 3 70 3 l70 0 0 -76z
m190 1 l0 -75 -75 0 -75 0 0 75 0 75 75 0 75 0 0 -75z m190 0 l0 -75 -75 0
-75 0 0 75 0 75 75 0 75 0 0 -75z m190 0 l0 -75 -75 0 -75 0 0 75 0 75 75 0
75 0 0 -75z m188 67 c-1 -4 -14 -38 -27 -75 l-25 -67 -45 0 -46 0 3 75 4 75
70 0 c38 0 68 -4 66 -8z"/>
<path d="M3027 1903 c-15 -15 -37 -18 -155 -18 -153 0 -173 -6 -235 -70 -55
-57 -70 -144 -41 -232 35 -103 58 -138 168 -252 153 -159 153 -159 177 -208
41 -84 37 -177 -8 -219 -21 -19 -37 -24 -81 -24 -50 0 -58 3 -92 38 -45 44
-66 124 -56 209 3 29 4 53 1 53 -23 0 -91 -48 -115 -82 -37 -51 -40 -105 -8
-157 29 -46 51 -65 116 -97 105 -53 267 -31 355 46 59 52 80 98 80 176 0 107
-44 182 -203 349 -165 174 -194 221 -188 301 6 71 31 94 103 94 48 0 57 -4
102 -44 50 -45 83 -104 104 -186 l12 -45 13 35 c16 44 17 251 1 304 -14 46
-26 53 -50 29z"/>
<path d="M6323 1886 c-53 -24 -68 -79 -39 -147 30 -70 77 -95 127 -69 28 15
62 88 62 133 0 72 -78 115 -150 83z"/>
<path d="M3252 1873 c50 -97 51 -104 59 -303 9 -197 -3 -605 -20 -693 l-8 -47
94 0 95 0 -6 33 c-4 17 -9 120 -13 228 -6 216 -3 230 58 290 32 32 62 42 104
37 70 -8 92 -115 76 -366 -6 -86 -13 -172 -17 -189 l-6 -33 94 0 95 0 -9 43
c-4 23 -11 143 -14 267 -6 238 -15 290 -58 338 -70 79 -194 67 -278 -26 -21
-23 -40 -42 -43 -42 -13 0 5 381 21 444 l6 26 -117 0 c-64 0 -115 -3 -113 -7z"/>
<path d="M4220 1510 c-111 -38 -161 -131 -161 -300 1 -241 110 -393 281 -392
105 0 181 52 231 156 39 83 52 153 47 270 -3 89 -7 108 -33 154 -16 30 -42 64
-58 78 -63 53 -206 69 -307 34z m163 -51 c38 -17 56 -59 68 -163 9 -73 10
-122 1 -201 -17 -158 -47 -215 -112 -215 -74 0 -107 74 -117 260 -6 122 6 231
33 282 23 44 77 60 127 37z"/>
<path d="M5040 1521 c-14 -4 -40 -15 -57 -24 -41 -21 -43 -21 -43 3 0 18 -7
20 -86 20 -47 0 -84 -3 -82 -7 2 -5 15 -30 29 -58 l24 -50 0 -400 c0 -265 -4
-414 -12 -442 l-11 -43 118 0 119 0 -25 44 c-17 30 -28 71 -34 128 -16 133
-15 138 20 138 53 0 158 50 215 102 64 59 107 139 131 245 32 145 3 257 -84
318 -38 26 -53 30 -120 32 -42 1 -88 -1 -102 -6z m103 -71 c35 -27 47 -76 47
-185 0 -161 -48 -284 -134 -342 -90 -61 -87 -68 -84 205 3 208 5 242 22 275
32 64 100 85 149 47z"/>
<path d="M5725 1505 c-33 -14 -61 -25 -62 -25 -2 0 -3 9 -3 20 0 18 -7 20 -85
20 -47 0 -85 -2 -85 -4 0 -2 12 -25 27 -51 24 -44 27 -60 33 -201 7 -183 -5
-654 -18 -706 l-10 -38 119 0 c65 0 119 4 119 9 0 5 -7 14 -15 21 -21 18 -43
101 -51 196 l-6 81 44 5 c108 12 230 100 285 206 43 82 58 145 58 247 0 97
-17 146 -67 192 -62 58 -181 70 -283 28z m134 -51 c37 -27 51 -74 51 -179 0
-180 -52 -309 -145 -362 -80 -45 -77 -54 -73 215 3 228 4 239 27 279 35 61 92
80 140 47z"/>
<path d="M6944 1511 c-23 -10 -60 -38 -83 -62 -44 -47 -49 -42 -32 34 l9 37
-109 0 c-60 0 -109 -2 -109 -5 0 -3 9 -23 19 -43 11 -21 24 -64 30 -97 15 -78
13 -359 -3 -462 l-12 -83 92 0 91 0 -9 43 c-12 58 -22 365 -14 411 8 44 78
121 119 131 15 4 42 4 60 1 53 -10 69 -55 75 -202 4 -112 -10 -333 -24 -369
-5 -13 8 -15 91 -15 89 0 97 2 90 18 -4 9 -13 139 -19 287 -13 278 -16 295
-60 343 -49 54 -127 67 -202 33z"/>
<path d="M6255 1478 c28 -51 45 -168 45 -308 -1 -98 -14 -269 -26 -315 l-6
-25 97 0 97 0 -6 24 c-31 125 -32 516 0 640 l6 26 -115 0 -116 0 24 -42z"/>
<path d="M7725 1514 c-168 -35 -284 -152 -320 -321 -38 -178 -1 -299 108 -355
49 -24 157 -29 207 -8 17 7 33 10 36 8 10 -11 -20 -116 -49 -171 -17 -32 -45
-71 -63 -85 -29 -24 -31 -29 -19 -46 19 -25 51 -16 112 33 117 92 173 256 173
509 1 144 16 386 26 420 6 22 6 22 -92 21 -55 -1 -108 -3 -119 -5z m50 -119
c4 -30 5 -134 3 -232 -4 -159 -6 -182 -26 -220 -25 -48 -47 -63 -91 -63 -45 0
-60 9 -80 49 -58 116 -18 372 72 459 33 32 83 62 104 62 7 0 14 -23 18 -55z"/>
<path d="M705 756 c-125 -59 -177 -192 -121 -312 73 -156 259 -191 380 -70 47
48 66 95 66 168 0 70 -15 110 -61 160 -71 76 -173 97 -264 54z"/>
<path d="M1480 759 c-151 -67 -188 -270 -69 -388 115 -114 301 -83 374 62 98
198 -104 415 -305 326z"/>
</g>
</svg>
