<svg xmlns="http://www.w3.org/2000/svg" xml:space="preserve" width="2000" height="117" data-id="lg_LTnW54Cktuwr5L2qaR" data-version="1" viewBox="0 0 2000 117"><g data-padding="20"><g transform="translate(10 2.108)scale(.96396)"><rect width="262.658" height="100.016" x="499.335" y="-411.844" fill="#111" paint-order="stroke" rx="26" ry="26" transform="translate(282.7 418.72)"/><rect width="333.839" height="106.686" x="463.745" y="-415.179" fill="#fff" paint-order="stroke" rx="26" ry="26" transform="translate(506.68 418.03)"/><rect width="275" height="110.74" x="493.164" y="-417.206" fill="none" rx="0" ry="0" transform="translate(256.59 423.27)"/><path fill="#fff" d="M843.244 89.854h6.96l-7.16-21.17h-19.4l-7.55 21.17h7.35v1.86h-14.99v-1.86h4.61l24.99-67.32h8.03l24.7 67.32h4.51v1.86h-32.05Zm-.98-23.32-8.53-25.68-9.21 25.68Zm53.7-41.55v-1.87h29.89v1.87h-5.39v30.96l.79-.19 27.63-30.77h-7.74v-1.87h17.15v1.87h-5.88l-16.85 18.81 23.52 46.06h5.29v1.86h-31.46v-1.86h4.61l-16.17-31.26-.89.2v31.06h5.39v1.86h-29.89v-1.86h5.39v-64.87Z"/><rect width="271.387" height="112.435" x="494.971" y="-418.054" fill="none" rx="0" ry="0" transform="translate(493.3 418.25)"/><path d="M1003.354 87.174h-11.27q-.39 0-.39-.49l.2-68.36q0-.38.39-.38h12.14q.39 0 .68.38l9.09 13.12 9.03-13.12q.29-.38.73-.38h12.2q.43 0 .43.38l.2 68.36q0 .49-.39.49h-11.27q-.39 0-.39-.49l-.1-50.77-10.44 15.16-10.35-15.16-.1 50.77q0 .49-.39.49m38.39-.49 12.34-68.36q.1-.38.49-.38h14.43q.39 0 .49.38l11.85 68.36q.05.49-.39.49h-11.03q-.48 0-.53-.49l-1.07-7.28h-13.56l-1.06 7.28q-.05.49-.49.49h-11.08q-.39 0-.39-.49m24.59-17.92-4.08-27.94-.59-3.69-.43 3.69-4.47 27.94Zm32.89 18.41h-11.27q-.39 0-.39-.49l.19-68.36q0-.38.39-.38h20.12q5.39 0 9.91 2.62 4.51 2.62 7.21 7.04 2.7 4.43 2.7 10.01 0 3.65-1.12 6.61t-2.6 5-2.7 3.02q5.4 5.97 5.4 14.04l.09 20.4q0 .49-.48.49h-11.27q-.39 0-.39-.29v-20.6q0-3.6-2.53-6.22-2.52-2.62-6.22-2.62h-6.56l-.09 29.24q0 .49-.39.49m9.04-57.33h-8.56v15.64h8.56q3.06 0 5.46-2.28 2.41-2.28 2.41-5.59 0-3.16-2.34-5.46-2.33-2.31-5.53-2.31m38.91 57.33h-11.27q-.39 0-.39-.49l.2-68.26q0-.48.38-.48h11.18q.39 0 .39.48v23.57l15.59-23.67q.39-.38.73-.38h11.42q.44 0 .19.38l-17.2 27.45 19.29 41.01q.24.39-.48.39h-12.15q-.49 0-.58-.39l-13.46-29.25-3.45 5.44v23.71q0 .49-.39.49m67.53 0h-32.16q-.39 0-.39-.49l.1-68.36q0-.38.39-.38h31.97q.38 0 .38.48v11.13q0 .39-.38.39h-20.41v15.54h20.41q.38 0 .38.39l.1 11.27q0 .39-.39.39h-20.5v17.4h20.5q.39 0 .39.48v11.37q0 .39-.39.39m30.46 0h-11.23q-.44 0-.44-.49v-56.74h-12.92q-.48 0-.48-.49l.09-11.13q0-.38.39-.38h37.8q.53 0 .53.38v11.13q0 .49-.38.49h-13.07l.09 56.74q0 .49-.38.49"/></g><path fill="transparent" stroke="transparent" d="M722.5 0h555v117h-555z"/></g></svg>